<svg width="157" height="35" viewBox="0 0 157 35" fill="none" xmlns="http://www.w3.org/2000/svg">
<path d="M24.5605 15.1152C24.5605 17.0254 24.332 18.7773 23.875 20.3711C23.4297 21.9531 22.7383 23.3242 21.8008 24.4844C20.8633 25.6445 19.6738 26.5527 18.2324 27.209L24.4199 34.1172H17.4414L12.7305 28.3516C12.6484 28.3516 12.5781 28.3516 12.5195 28.3516C12.4609 28.3516 12.3965 28.3516 12.3262 28.3516C10.2285 28.3516 8.41211 28.041 6.87695 27.4199C5.3418 26.7871 4.07031 25.8848 3.0625 24.7129C2.06641 23.541 1.32227 22.1406 0.830078 20.5117C0.337891 18.8828 0.0917969 17.0723 0.0917969 15.0801C0.0917969 12.4199 0.525391 10.1055 1.39258 8.13672C2.27148 6.15625 3.61914 4.62109 5.43555 3.53125C7.25195 2.44141 9.56055 1.89648 12.3613 1.89648C15.1504 1.89648 17.4414 2.44141 19.2344 3.53125C21.0391 4.62109 22.375 6.15625 23.2422 8.13672C24.1211 10.1172 24.5605 12.4434 24.5605 15.1152ZM5.80469 15.1152C5.80469 16.9082 6.02734 18.4551 6.47266 19.7559C6.92969 21.0449 7.63867 22.041 8.59961 22.7441C9.56055 23.4355 10.8027 23.7812 12.3262 23.7812C13.873 23.7812 15.127 23.4355 16.0879 22.7441C17.0488 22.041 17.7461 21.0449 18.1797 19.7559C18.625 18.4551 18.8477 16.9082 18.8477 15.1152C18.8477 12.4199 18.3438 10.2988 17.3359 8.75195C16.3281 7.20508 14.6699 6.43164 12.3613 6.43164C10.8262 6.43164 9.57227 6.7832 8.59961 7.48633C7.63867 8.17773 6.92969 9.17383 6.47266 10.4746C6.02734 11.7637 5.80469 13.3105 5.80469 15.1152ZM47.5 8.34766V28H43.3867L42.666 25.4863H42.3848C41.9629 26.1543 41.4355 26.6992 40.8027 27.1211C40.1699 27.543 39.4727 27.8535 38.7109 28.0527C37.9492 28.252 37.1582 28.3516 36.3379 28.3516C34.9316 28.3516 33.707 28.1055 32.6641 27.6133C31.6211 27.1094 30.8066 26.3301 30.2207 25.2754C29.6465 24.2207 29.3594 22.8496 29.3594 21.1621V8.34766H34.7207V19.8262C34.7207 21.2324 34.9727 22.293 35.4766 23.0078C35.9805 23.7227 36.7832 24.0801 37.8848 24.0801C38.9746 24.0801 39.8301 23.834 40.4512 23.3418C41.0723 22.8379 41.5059 22.1055 41.752 21.1445C42.0098 20.1719 42.1387 18.9883 42.1387 17.5938V8.34766H47.5ZM58.4863 8.34766V28H53.125V8.34766H58.4863ZM55.8145 0.648438C56.6113 0.648438 57.2969 0.835938 57.8711 1.21094C58.4453 1.57422 58.7324 2.25977 58.7324 3.26758C58.7324 4.26367 58.4453 4.95508 57.8711 5.3418C57.2969 5.7168 56.6113 5.9043 55.8145 5.9043C55.0059 5.9043 54.3145 5.7168 53.7402 5.3418C53.1777 4.95508 52.8965 4.26367 52.8965 3.26758C52.8965 2.25977 53.1777 1.57422 53.7402 1.21094C54.3145 0.835938 55.0059 0.648438 55.8145 0.648438ZM77.8047 28H62.2832V24.8359L71.3887 12.4434H62.8281V8.34766H77.4883V11.8281L68.6289 23.9043H77.8047V28ZM79.9668 20.5469V16.1523H89.4062V20.5469H79.9668ZM98.6699 0.648438V7.01172C98.6699 7.75 98.6465 8.48242 98.5996 9.20898C98.5645 9.93555 98.5176 10.498 98.459 10.8965H98.6699C99.1855 10.0879 99.8887 9.40234 100.779 8.83984C101.67 8.26562 102.824 7.97852 104.242 7.97852C106.445 7.97852 108.232 8.83984 109.604 10.5625C110.975 12.2852 111.66 14.8105 111.66 18.1387C111.66 20.377 111.344 22.2578 110.711 23.7812C110.078 25.293 109.193 26.4355 108.057 27.209C106.92 27.9707 105.602 28.3516 104.102 28.3516C102.66 28.3516 101.523 28.0938 100.691 27.5781C99.8594 27.0625 99.1855 26.4824 98.6699 25.8379H98.3008L97.4043 28H93.3086V0.648438H98.6699ZM102.52 12.2676C101.582 12.2676 100.838 12.4609 100.287 12.8477C99.7363 13.2344 99.332 13.8145 99.0742 14.5879C98.8281 15.3613 98.6934 16.3398 98.6699 17.5234V18.1035C98.6699 20.0137 98.9512 21.4785 99.5137 22.498C100.076 23.5059 101.102 24.0098 102.59 24.0098C103.691 24.0098 104.564 23.5 105.209 22.4805C105.865 21.4609 106.193 19.9902 106.193 18.0684C106.193 16.1465 105.865 14.6992 105.209 13.7266C104.553 12.7539 103.656 12.2676 102.52 12.2676ZM133.949 18.1387C133.949 19.7793 133.727 21.2324 133.281 22.498C132.848 23.7637 132.209 24.8359 131.365 25.7148C130.533 26.582 129.525 27.2383 128.342 27.6836C127.17 28.1289 125.846 28.3516 124.369 28.3516C122.986 28.3516 121.715 28.1289 120.555 27.6836C119.406 27.2383 118.404 26.582 117.549 25.7148C116.705 24.8359 116.049 23.7637 115.58 22.498C115.123 21.2324 114.895 19.7793 114.895 18.1387C114.895 15.959 115.281 14.1133 116.055 12.6016C116.828 11.0898 117.93 9.94141 119.359 9.15625C120.789 8.37109 122.494 7.97852 124.475 7.97852C126.314 7.97852 127.943 8.37109 129.361 9.15625C130.791 9.94141 131.91 11.0898 132.719 12.6016C133.539 14.1133 133.949 15.959 133.949 18.1387ZM120.361 18.1387C120.361 19.4277 120.502 20.5117 120.783 21.3906C121.064 22.2695 121.504 22.9316 122.102 23.377C122.699 23.8223 123.479 24.0449 124.439 24.0449C125.389 24.0449 126.156 23.8223 126.742 23.377C127.34 22.9316 127.773 22.2695 128.043 21.3906C128.324 20.5117 128.465 19.4277 128.465 18.1387C128.465 16.8379 128.324 15.7598 128.043 14.9043C127.773 14.0371 127.34 13.3867 126.742 12.9531C126.145 12.5195 125.365 12.3027 124.404 12.3027C122.986 12.3027 121.955 12.7891 121.311 13.7617C120.678 14.7344 120.361 16.1934 120.361 18.1387ZM142.404 17.9629L136.076 8.34766H142.158L145.973 14.6055L149.822 8.34766H155.904L149.506 17.9629L156.203 28H150.104L145.973 21.2676L141.824 28H135.742L142.404 17.9629Z" fill="url(#paint0_linear_12386_56)"/>
<defs>
<linearGradient id="paint0_linear_12386_56" x1="-2" y1="44.5" x2="166" y2="0.999985" gradientUnits="userSpaceOnUse">
<stop stop-color="#8F00FF"/>
<stop offset="1" stop-color="#00A3FF"/>
</linearGradient>
</defs>
</svg>
